<?xml version="1.0" encoding="UTF-8" standalone="no"?>
<!-- Created with Inkscape (http://www.inkscape.org/) -->
<svg
   xmlns:dc="http://purl.org/dc/elements/1.1/"
   xmlns:cc="http://creativecommons.org/ns#"
   xmlns:rdf="http://www.w3.org/1999/02/22-rdf-syntax-ns#"
   xmlns:svg="http://www.w3.org/2000/svg"
   xmlns="http://www.w3.org/2000/svg"
   xmlns:xlink="http://www.w3.org/1999/xlink"
   xmlns:sodipodi="http://sodipodi.sourceforge.net/DTD/sodipodi-0.dtd"
   xmlns:inkscape="http://www.inkscape.org/namespaces/inkscape"
   width="341.32669"
   height="1047.1382"
   id="svg2"
   sodipodi:version="0.32"
   inkscape:version="0.46"
   sodipodi:docname="Trinkflasche.svg"
   inkscape:output_extension="org.inkscape.output.svg.inkscape"
   version="1.0">
  <defs
     id="defs4">
    <linearGradient
       inkscape:collect="always"
       id="linearGradient5321">
      <stop
         style="stop-color:#ffffff;stop-opacity:1;"
         offset="0"
         id="stop5323" />
      <stop
         style="stop-color:#ffffff;stop-opacity:0;"
         offset="1"
         id="stop5325" />
    </linearGradient>
    <inkscape:perspective
       sodipodi:type="inkscape:persp3d"
       inkscape:vp_x="0 : 526.18109 : 1"
       inkscape:vp_y="6.1230318e-14 : 1000 : 0"
       inkscape:vp_z="744.09448 : 526.18109 : 1"
       inkscape:persp3d-origin="372.04724 : 350.78739 : 1"
       id="perspective10" />
    <inkscape:perspective
       id="perspective4916"
       inkscape:persp3d-origin="134.85049 : 103.178 : 1"
       inkscape:vp_z="269.70099 : 154.767 : 1"
       inkscape:vp_y="0 : 1000 : 0"
       inkscape:vp_x="0 : 154.767 : 1"
       sodipodi:type="inkscape:persp3d" />
    <radialGradient
       xlink:href="#linearGradient994"
       r="49.665058"
       id="radialGradient993"
       fy="502.10669"
       fx="105.48236"
       cy="541.31592"
       cx="106.52795"
       gradientUnits="userSpaceOnUse" />
    <radialGradient
       xlink:href="#linearGradient843"
       r="0.28679976"
       id="radialGradient947"
       fy="0.59440559"
       fx="0.52464789"
       cy="0.32867134"
       cx="0.52464789" />
    <radialGradient
       xlink:href="#linearGradient948"
       r="49.972103"
       id="radialGradient945"
       fy="734.32568"
       fx="182.57774"
       cy="780.47272"
       cx="184.20265"
       gradientTransform="scale(1.4550038,0.6872834)"
       gradientUnits="userSpaceOnUse" />
    <linearGradient
       y2="299.05014"
       y1="464.90207"
       xlink:href="#linearGradient1102"
       x2="354.95923"
       x1="354.95923"
       id="linearGradient889"
       gradientTransform="scale(0.7337149,1.3629273)"
       gradientUnits="userSpaceOnUse" />
    <linearGradient
       y2="593.573"
       y1="696.90118"
       xlink:href="#linearGradient843"
       x2="193.92329"
       x1="199.15404"
       id="linearGradient853"
       gradientTransform="scale(1.3813911,0.7239079)"
       gradientUnits="userSpaceOnUse" />
    <linearGradient
       y2="588.70502"
       y1="559.13995"
       xlink:href="#linearGradient843"
       x2="192.95671"
       x1="192.95671"
       id="linearGradient851"
       gradientTransform="scale(1.3809243,0.7241527)"
       gradientUnits="userSpaceOnUse" />
    <linearGradient
       y2="333.88309"
       y1="339.24017"
       xlink:href="#linearGradient843"
       x2="317.05142"
       x1="238.75548"
       id="linearGradient850"
       gradientTransform="scale(0.7337149,1.3629273)"
       gradientUnits="userSpaceOnUse" />
    <linearGradient
       y2="564.03723"
       y1="563.01941"
       xlink:href="#linearGradient843"
       x2="156.10408"
       x1="118.25803"
       id="linearGradient848"
       gradientTransform="scale(1.5493403,0.645436)"
       gradientUnits="userSpaceOnUse" />
    <linearGradient
       xlink:href="#linearGradient843"
       id="linearGradient847"
       gradientTransform="scale(1.5493403,0.645436)"
       x1="139.11636"
       y1="564.54614"
       x2="200.18613"
       y2="564.54614"
       gradientUnits="userSpaceOnUse" />
    <linearGradient
       y2="326.23184"
       y1="329.58002"
       xlink:href="#linearGradient843"
       x2="404.87259"
       x1="458.70102"
       id="linearGradient846"
       gradientTransform="scale(0.7337149,1.3629273)"
       gradientUnits="userSpaceOnUse" />
    <linearGradient
       y2="795.11487"
       y1="831.05975"
       xlink:href="#linearGradient843"
       x2="178.45302"
       x1="177.77042"
       id="linearGradient842"
       gradientTransform="scale(1.5489957,0.6455796)"
       gradientUnits="userSpaceOnUse" />
    <linearGradient
       y2="1160.6499"
       y1="1061.6371"
       xlink:href="#linearGradient838"
       x2="87.605721"
       x1="87.605721"
       id="linearGradient841"
       gradientTransform="scale(1.9304835,0.5180049)"
       gradientUnits="userSpaceOnUse" />
    <linearGradient
       y2="459.23132"
       y1="536.03741"
       xlink:href="#linearGradient838"
       x2="217.42307"
       x1="217.42307"
       id="linearGradient837"
       gradientTransform="scale(1.2410129,0.8057934)"
       gradientUnits="userSpaceOnUse" />
    <linearGradient
       id="linearGradient834">
      <stop
         style="stop-color:#000;stop-opacity:1;"
         offset="0"
         id="stop835" />
      <stop
         style="stop-color:#fff;stop-opacity:1;"
         offset="1"
         id="stop836" />
    </linearGradient>
    <linearGradient
       id="linearGradient838">
      <stop
         style="stop-color:#ffffff;stop-opacity:0.00000000;"
         offset="0.00000000"
         id="stop839" />
      <stop
         style="stop-color:#fff;stop-opacity:1;"
         offset="1"
         id="stop840" />
    </linearGradient>
    <linearGradient
       id="linearGradient843">
      <stop
         style="stop-color:#000000;stop-opacity:0.38823530;"
         offset="0.00000000"
         id="stop844" />
      <stop
         style="stop-color:#000000;stop-opacity:0.19215687;"
         offset="0.50000000"
         id="stop1146" />
      <stop
         style="stop-color:#000000;stop-opacity:0.00000000;"
         offset="1.0000000"
         id="stop845" />
    </linearGradient>
    <linearGradient
       id="linearGradient948">
      <stop
         style="stop-color:#ffffff;stop-opacity:1.0000000;"
         offset="0.00000000"
         id="stop949" />
      <stop
         style="stop-color:#ffffff;stop-opacity:0.16078432;"
         offset="0.52955699"
         id="stop1149" />
      <stop
         style="stop-color:#000000;stop-opacity:0.058823530;"
         offset="0.67708677"
         id="stop1148" />
      <stop
         style="stop-color:#000000;stop-opacity:0.00000000;"
         offset="1.0000000"
         id="stop950" />
    </linearGradient>
    <linearGradient
       id="linearGradient994">
      <stop
         style="stop-color:#ffffff;stop-opacity:0.61983472;"
         offset="0.00000000"
         id="stop995" />
      <stop
         style="stop-color:#ffffff;stop-opacity:0.00000000;"
         offset="1.0000000"
         id="stop996" />
    </linearGradient>
    <linearGradient
       id="linearGradient1102">
      <stop
         style="stop-color:#000000;stop-opacity:0.38823530;"
         offset="0.00000000"
         id="stop1103" />
      <stop
         style="stop-color:#ffffff;stop-opacity:0.34375000;"
         offset="0.50000000"
         id="stop1107" />
      <stop
         style="stop-color:#ffffff;stop-opacity:0.19607843;"
         offset="1.0000000"
         id="stop1104" />
    </linearGradient>
    <inkscape:perspective
       id="perspective4986"
       inkscape:persp3d-origin="80 : 53.333333 : 1"
       inkscape:vp_z="160 : 80 : 1"
       inkscape:vp_y="0 : 1000 : 0"
       inkscape:vp_x="0 : 80 : 1"
       sodipodi:type="inkscape:persp3d" />
    <linearGradient
       inkscape:collect="always"
       xlink:href="#linearGradient1102"
       id="linearGradient5100"
       gradientUnits="userSpaceOnUse"
       gradientTransform="scale(0.7337149,1.3629273)"
       x1="354.95923"
       y1="464.90207"
       x2="354.95923"
       y2="299.05014" />
    <linearGradient
       inkscape:collect="always"
       xlink:href="#linearGradient843"
       id="linearGradient5102"
       gradientUnits="userSpaceOnUse"
       gradientTransform="scale(0.7337149,1.3629273)"
       x1="238.75548"
       y1="339.24017"
       x2="317.05142"
       y2="333.88309" />
    <linearGradient
       inkscape:collect="always"
       xlink:href="#linearGradient843"
       id="linearGradient5104"
       gradientUnits="userSpaceOnUse"
       gradientTransform="scale(0.7337149,1.3629273)"
       x1="458.70102"
       y1="329.58002"
       x2="404.87259"
       y2="326.23184" />
    <linearGradient
       inkscape:collect="always"
       xlink:href="#linearGradient843"
       id="linearGradient5106"
       gradientUnits="userSpaceOnUse"
       gradientTransform="scale(1.3809243,0.7241527)"
       x1="192.95671"
       y1="559.13995"
       x2="192.95671"
       y2="588.70502" />
    <linearGradient
       inkscape:collect="always"
       xlink:href="#linearGradient843"
       id="linearGradient5108"
       gradientUnits="userSpaceOnUse"
       gradientTransform="scale(1.3813911,0.7239079)"
       x1="199.15404"
       y1="696.90118"
       x2="193.92329"
       y2="593.573" />
    <linearGradient
       inkscape:collect="always"
       xlink:href="#linearGradient838"
       id="linearGradient5110"
       gradientUnits="userSpaceOnUse"
       gradientTransform="scale(1.2410129,0.8057934)"
       x1="217.42307"
       y1="536.03741"
       x2="217.42307"
       y2="459.23132" />
    <linearGradient
       inkscape:collect="always"
       xlink:href="#linearGradient843"
       id="linearGradient5112"
       gradientUnits="userSpaceOnUse"
       gradientTransform="scale(1.5493403,0.645436)"
       x1="118.25803"
       y1="563.01941"
       x2="156.10408"
       y2="564.03723" />
    <radialGradient
       inkscape:collect="always"
       xlink:href="#linearGradient948"
       id="radialGradient5116"
       gradientUnits="userSpaceOnUse"
       gradientTransform="scale(1.4550038,0.6872834)"
       cx="184.20265"
       cy="780.47272"
       fx="182.57774"
       fy="734.32568"
       r="49.972103" />
    <linearGradient
       inkscape:collect="always"
       xlink:href="#linearGradient843"
       id="linearGradient5118"
       gradientUnits="userSpaceOnUse"
       gradientTransform="scale(1.5489957,0.6455796)"
       x1="177.77042"
       y1="831.05975"
       x2="178.45302"
       y2="795.11487" />
    <linearGradient
       inkscape:collect="always"
       xlink:href="#linearGradient838"
       id="linearGradient5120"
       gradientUnits="userSpaceOnUse"
       gradientTransform="scale(1.9871086,0.5032437)"
       x1="84.970261"
       y1="1095.1855"
       x2="84.970261"
       y2="1189.3411" />
    <linearGradient
       inkscape:collect="always"
       xlink:href="#linearGradient838"
       id="linearGradient5122"
       gradientUnits="userSpaceOnUse"
       gradientTransform="scale(1.9304835,0.5180049)"
       x1="87.605721"
       y1="1061.6371"
       x2="87.605721"
       y2="1160.6499" />
    <radialGradient
       inkscape:collect="always"
       xlink:href="#linearGradient994"
       id="radialGradient5124"
       gradientUnits="userSpaceOnUse"
       cx="106.52795"
       cy="541.31592"
       fx="105.48236"
       fy="502.10669"
       r="49.665058" />
    <linearGradient
       inkscape:collect="always"
       xlink:href="#linearGradient5321"
       id="linearGradient5327"
       x1="18.320284"
       y1="428.50037"
       x2="145.75813"
       y2="137.4805"
       gradientUnits="userSpaceOnUse" />
  </defs>
  <sodipodi:namedview
     id="base"
     pagecolor="#ffffff"
     bordercolor="#666666"
     borderopacity="1.0"
     inkscape:pageopacity="0.0"
     inkscape:pageshadow="2"
     inkscape:zoom="0.12374369"
     inkscape:cx="127.06991"
     inkscape:cy="645.31167"
     inkscape:document-units="px"
     inkscape:current-layer="layer1"
     showgrid="false"
     inkscape:window-width="1276"
     inkscape:window-height="750"
     inkscape:window-x="0"
     inkscape:window-y="14"
     showguides="true"
     inkscape:guide-bbox="true">
    <inkscape:grid
       type="xygrid"
       id="grid2392"
       visible="true"
       enabled="true" />
  </sodipodi:namedview>
  <metadata
     id="metadata7">
    <rdf:RDF>
      <cc:Work
         rdf:about="">
        <dc:format>image/svg+xml</dc:format>
        <dc:type
           rdf:resource="http://purl.org/dc/dcmitype/StillImage" />
      </cc:Work>
    </rdf:RDF>
  </metadata>
  <g
     inkscape:label="Ebene 1"
     inkscape:groupmode="layer"
     id="layer1"
     transform="translate(-1.2218039,-1.5050345)">
    <g
       id="g5331"
       style="stroke:#000000;stroke-opacity:0">
      <g
         transform="translate(2.8571429,-2.8571429)"
         id="g5178"
         style="stroke:#000000;stroke-opacity:0">
        <rect
           ry="44.411961"
           y="4.3621774"
           x="114.82725"
           height="126.63418"
           width="105.70947"
           id="rect4614"
           style="fill:#008000;fill-opacity:1;fill-rule:nonzero;stroke:#000000;stroke-width:1.10699999000000000;stroke-miterlimit:4;stroke-dasharray:none;stroke-opacity:0" />
        <path
           style="fill:#ff0000;fill-opacity:1;fill-rule:nonzero;stroke:#000000;stroke-width:1.10699999000000000;stroke-miterlimit:4;stroke-dasharray:none;stroke-opacity:0"
           d="M 127.51002,79.353264 C 121.15947,79.353264 116.08568,84.946033 116.08568,91.908389 C 116.08568,91.908389 114.56495,124.69518 116.08568,126.82733 C 114.78105,126.86403 116.20641,126.9334 116.08568,126.97823 C 20.965048,162.30944 1.7044378,217.2919 1.567086,315.30511 C 1.5181073,350.2547 0.55743718,374.10119 1.567086,407.0541 C 2.3204862,431.19858 3.4591182,444.33043 23.589893,460.17194 C 25.240529,461.47087 24.345461,517.59906 23.589893,518.11867 C 9.3644196,527.90169 5.6069234,543.42488 1.567086,561.57873 C -5.0857663,591.47469 0.52456153,897.79238 1.567086,943.06135 C 3.0595188,1007.8664 26.52919,1052.8265 58.826385,1051.2286 C 91.184312,1049.6278 76.006448,972.03473 102.98211,972.03473 C 133.27117,972.03473 136.26828,1051.6104 164.53586,1051.5002 C 203.24281,1051.3494 204.16072,974.35479 229.42056,973.96631 C 256.54472,973.54911 252.81642,1050.6105 293.2867,1050.3534 C 320.8821,1050.178 332.75434,1015.3347 336.31376,943.06135 C 338.43168,900.05753 344.61891,608.88609 331.9092,561.33728 C 327.32286,544.17919 322.2332,529.18197 309.88639,518.11867 C 306.54868,515.12794 308.52294,461.09489 309.88639,460.17194 C 325.07025,443.81853 335.08283,431.11229 336.31376,407.0541 C 338.17371,370.70193 336.31376,350.62527 336.31376,315.30511 C 336.31376,226.39228 319.03156,158.02113 221.79516,126.97823 C 221.68038,126.94159 222.01539,122.03835 222.01539,119.1011 L 222.01539,91.908389 C 222.01539,84.946034 216.91407,79.353264 210.56353,79.353264 L 127.51002,79.353264 z"
           id="path2383"
           sodipodi:nodetypes="cccssssssssssssssscssscccc" />
        <rect
           style="fill:#ff0000;fill-opacity:1;fill-rule:nonzero;stroke:#000000;stroke-width:1.10699999000000000;stroke-miterlimit:4;stroke-dasharray:none;stroke-opacity:0"
           id="rect2431"
           width="149.49577"
           height="8.8985577"
           x="94.280121"
           y="79.178802"
           ry="4.4492788" />
        <rect
           style="fill:#e6e6e6;fill-opacity:1;fill-rule:nonzero;stroke:#000000;stroke-width:1.10699999000000000;stroke-miterlimit:4;stroke-dasharray:none;stroke-opacity:0"
           id="rect2435"
           width="339.78046"
           height="343.26578"
           x="-0.94981015"
           y="576.99347"
           ry="1.9714983" />
        <path
           style="font-size:89.39352416999999200px;font-style:normal;font-variant:normal;font-weight:normal;font-stretch:normal;text-align:start;line-height:125%;writing-mode:lr-tb;text-anchor:start;fill:#ff0000;fill-opacity:1;stroke:#000000;stroke-width:1.76182460999999990;stroke-linecap:butt;stroke-linejoin:miter;stroke-miterlimit:4;stroke-dasharray:none;stroke-opacity:0;font-family:Chinyen;-inkscape-font-specification:Chinyen"
           d="M 54.184647,673.79061 L 58.182298,658.28352 L 68.485598,664.28374 L 65.113589,680.15517 L 54.184647,673.79061 z M 30.113807,655.04577 C 39.774393,649.18764 48.460928,641.33912 56.173439,631.50017 C 60.454708,626.06674 67.028956,616.48006 75.896193,602.74009 L 110.84385,623.09217 C 100.01569,641.6857 92.609689,658.15617 88.625816,672.50366 C 86.525968,680.12265 86.507654,685.34598 88.570874,688.17365 L 73.406057,694.97006 C 66.693822,687.29975 67.535631,673.33289 75.931456,653.06941 C 79.3484,644.84487 82.736539,637.84839 86.095898,632.07993 L 80.289761,628.69867 C 68.551455,647.37221 54.297342,662.2949 37.527388,673.46677 L 30.113807,655.04577 z M 104.87229,676.38276 C 102.94064,676.31847 100.74891,676.1888 98.297062,675.99375 L 94.197164,659.41085 C 108.33663,660.53556 119.31514,660.41812 127.13273,659.05851 C 130.52947,658.4479 132.25574,657.79194 132.31155,657.09061 C 132.60046,653.45813 121.9761,650.78531 100.43846,649.07212 L 96.33327,632.55578 L 107.62763,633.45416 C 115.72532,634.09832 121.08099,634.61278 123.69467,634.99748 C 130.09402,635.94608 135.2461,637.34659 139.15095,639.199 C 146.06347,642.56824 149.14545,648.95859 148.39691,658.37007 C 147.91288,664.45448 143.25478,669.01782 134.4226,672.06009 C 130.48195,673.42076 126.08456,674.43688 121.23044,675.10845 C 120.53405,683.86308 119.49748,691.90813 118.12076,699.24361 L 101.96884,697.95885 C 103.30553,691.10436 104.27335,683.91234 104.87229,676.38276 L 104.87229,676.38276 z M 161.62349,678.86954 C 159.70334,679.08933 157.51628,679.28261 155.06235,679.44939 L 148.57394,663.64741 C 162.72542,662.68556 173.56791,660.95874 181.10143,658.46692 C 184.37182,657.3646 185.98319,656.46247 185.93553,655.76055 C 185.68835,652.12499 174.78685,651.03977 153.23092,652.50488 L 146.74705,636.76954 L 158.051,636.00121 C 166.15557,635.4504 171.52877,635.17355 174.1706,635.17065 C 180.63992,635.17014 185.9417,635.79963 190.07608,637.05913 C 197.40809,639.37778 201.39422,645.24683 202.03455,654.66629 C 202.44841,660.75587 198.5102,665.95322 190.21985,670.25833 C 186.52151,672.18242 182.32079,673.83268 177.61769,675.20913 C 178.21322,683.97119 178.36817,692.08127 178.08251,699.53935 L 161.91688,700.63813 C 162.2335,693.66171 162.1357,686.40551 161.62349,678.86954 L 161.62349,678.86954 z M 234.88325,688.34201 C 235.13166,690.88619 235.15827,692.35478 234.96306,692.74777 L 219.67729,695.57917 C 219.5174,694.7158 219.41927,694.06379 219.38289,693.62312 C 214.77757,695.28041 212.00454,696.46425 211.06382,697.17465 L 213.42422,680.25887 C 214.26717,679.7441 215.42433,679.23905 216.89572,678.74368 C 216.86366,678.57033 216.5837,677.05901 216.05595,674.20971 C 215.41024,670.48932 214.77343,666.81165 214.14542,663.17668 C 213.13334,657.46833 212.1106,652.18665 211.07729,647.33166 C 209.87591,641.56961 208.59612,636.4696 207.23793,632.03159 L 223.16984,629.0805 C 225.79928,639.1789 228.91744,653.96409 232.52434,673.43611 L 243.33225,670.29571 C 250.19887,668.31016 255.81249,666.91351 260.17309,666.10576 L 257.87832,683.00939 C 256.19753,683.09794 254.42893,683.31414 252.57267,683.65797 C 248.81619,684.35379 242.91972,685.91514 234.88325,688.34201 L 234.88325,688.34201 z M 249.72389,648.0566 L 248.97731,630.99326 C 254.14615,626.80486 263.65719,621.49517 277.51042,615.06419 C 282.93102,612.52052 287.88976,610.36428 292.38665,608.59549 L 293.11031,625.59897 C 292.06573,625.57544 290.19027,626.08152 287.48402,627.11723 C 274.23694,632.18726 261.65021,639.16705 249.72389,648.0566 L 249.72389,648.0566 z M 257.0736,667.81324 L 256.28756,650.83365 C 260.11249,647.67827 266.971,643.66696 276.86303,638.7997 C 286.3043,634.10507 293.9367,630.64335 299.76015,628.41452 L 300.50672,645.47787 C 299.30789,645.41992 297.39604,645.89322 294.77127,646.89775 C 287.7186,649.59702 279.0654,654.01392 268.81167,660.14846 C 264.36835,662.78923 260.4556,665.34417 257.0736,667.81324 L 257.0736,667.81324 z M 264.84237,689.03139 L 264.03343,671.99191 C 267.85614,668.83547 274.71343,664.82365 284.60555,659.95641 C 294.06267,655.30335 301.703,651.86242 307.52653,649.6336 L 308.2517,666.63362 C 307.1103,666.60133 305.22726,667.08746 302.6025,668.09202 C 295.50657,670.80782 286.82465,675.21188 276.55665,681.30422 C 272.15323,683.92969 268.24842,686.50541 264.84237,689.03139 L 264.84237,689.03139 z"
           id="text4638" />
        <path
           style="opacity:0;fill:#008080;fill-opacity:1;fill-rule:nonzero;stroke:#000000;stroke-width:1.10699999000000000;stroke-miterlimit:4;stroke-opacity:0"
           d="M 33.98154,744.11712 C 61.982826,813.38219 328.73997,771.86898 309.64506,725.6742 C 297.5925,815.12285 164.12771,977.81202 32.010041,745.9928 C 32.010041,744.95368 32.889332,744.11712 33.98154,744.11712 z"
           id="rect4642"
           sodipodi:nodetypes="cccc" />
        <g
           id="g4919"
           transform="matrix(0.3875233,0.1486052,-0.1486052,0.3875233,69.099965,739.27312)"
           style="stroke:#000000;stroke-opacity:0">
          <path
             id="path4889"
             d="M 200.655,2.044 C 201.253,2.387 201.18,3.775 202.005,3.579 C 203.679,3.182 205.638,2.883 207.27,2.339 C 210.157,1.377 214.742,1.404 217.687,2.161 C 220.884,2.982 224.476,4.294 227.812,4.294 C 231.457,4.294 234.698,6.622 237.346,8.895 C 238.431,9.826 239.631,11.985 240.95,12.47 C 242.33,12.977 243.779,12.917 245.206,13.501 C 247.805,14.564 251.169,15.117 253.28,17.021 C 255.426,18.956 258.351,19.771 260.694,21.55 C 263.222,23.471 268.388,25.258 269.463,28.505 C 270.289,31.003 268.847,34.839 267.057,36.649 C 264.81,38.92 261.193,40.008 258.394,41.436 C 255.033,43.151 251.331,44.879 248.573,47.506 C 245.782,50.165 243.553,53.464 241.017,56.366 C 236.125,61.966 229.998,65.428 224.108,69.706 C 222.618,70.789 220.571,71.109 218.852,71.689 C 216.993,72.316 215.212,73.187 213.322,73.718 C 209.658,74.749 205.741,75.099 202.157,76.294 C 209.921,78.624 217.924,80.474 225.208,84.131 C 232.455,87.77 239.865,92.026 245.844,97.551 C 248.67,100.162 251.412,102.946 253.747,106.009 C 256.312,109.373 257.847,113.327 260.183,116.831 C 261.061,118.146 260.931,119.843 261.741,121.188 C 262.563,122.554 263.524,123.829 263.97,125.383 C 265.224,129.757 266.692,134.077 267.616,138.539 C 271.162,155.65 269.451,173.394 267.209,190.556 C 266.061,199.344 263.922,207.932 262.194,216.614 C 261.396,220.624 261.017,224.731 259.936,228.681 C 258.811,232.791 256.951,236.677 255.061,240.481 C 251.398,247.853 247.111,254.914 241.9,261.3 C 239.334,264.446 236.636,267.499 233.794,270.398 C 231.101,273.145 227.847,275.322 225.314,278.224 C 224.198,279.503 223.374,280.811 221.886,281.714 C 220.534,282.535 219.038,283.084 217.696,283.922 C 214.391,285.982 211.805,289.011 208.427,290.989 C 201.179,295.234 194.015,299.285 186.368,302.788 C 178.393,306.441 170.215,308.274 161.523,309.132 C 159.498,309.331 157.467,309.49 155.431,309.531 C 153.583,309.568 152.261,308.693 150.338,308.826 C 148.516,308.951 146.801,308.111 145.013,307.925 C 142.662,307.679 140.304,307.502 137.943,307.4 C 133.883,307.225 130.422,307.595 126.473,308.461 C 122.606,309.31 117.86,308.994 114.05,307.942 C 110.483,306.958 107.739,305.813 105.445,302.867 C 103.036,299.772 98.721,300.276 95.144,299.28 C 87.972,297.281 80.652,294.926 74.284,291.036 C 72.544,289.974 70.655,289.182 68.933,288.078 C 67.502,287.16 66.331,285.911 64.974,284.897 C 61.749,282.487 57.69,281.492 54.359,279.213 C 50.981,276.901 47.782,274.344 44.553,271.831 C 41.006,269.069 37.197,266.518 34.025,263.311 C 28.227,257.452 22.87,251.341 17.98,244.706 C -3.371,215.733 -3.582,178.181 6.345,144.86 C 11.158,128.704 18.327,113.822 28.866,100.631 C 33.534,94.787 39.661,89.38 45.891,85.25 C 49.052,83.155 52.409,82.02 55.816,80.465 C 59.592,78.743 62.829,76.501 66.91,75.453 C 74.96,73.387 83.399,71.169 91.751,70.953 C 95.855,70.847 99.976,71.042 104.081,71.042 C 106.873,71.042 109.293,70.874 112.004,71.448 C 113.441,71.752 116.393,72.553 117.712,71.581 C 118.89,70.712 113.603,67.269 112.954,66.747 C 110.274,64.593 107.135,62.941 104.787,60.393 C 104.063,59.607 100.029,54.162 101.025,53.042 C 101.85,52.114 101.538,51.047 102.204,50.07 C 102.934,49 104.383,48.574 105.513,48.091 C 108.405,46.853 112.008,45.514 113.752,42.782 C 114.933,40.932 119.29,37.106 121.686,38.304 C 124.274,39.597 127.962,39.325 130.336,40.998 C 135.286,44.487 133.562,51.593 131.946,56.35 C 131.575,57.443 133.101,58.453 134.037,57.966 C 135.388,57.264 136.593,55.939 137.512,54.756 C 139.757,51.868 140.504,48.391 141.551,44.967 C 142.541,41.728 143.792,38.563 144.529,35.254 C 145.321,31.691 146.82,29.847 149.063,27.085 C 151.161,24.502 153.252,21.711 156.493,20.523 C 160.006,19.235 162.661,18.81 165.584,16.254 C 171.069,11.457 176.727,6.791 183.432,3.794 C 186.55,2.402 198.208,-2.851 200.655,2.044"
             clip-rule="evenodd"
             style="fill:#010101;fill-rule:evenodd;stroke:#000000;stroke-opacity:0" />
          <path
             id="path4891"
             d="M 229.155,10.294 C 226.672,11.536 223.939,12.511 221.936,14.513 C 219.772,16.677 217.093,18.197 214.378,19.557 C 209.07,22.217 203.842,25.838 200.355,30.722 C 199.885,31.38 199.425,32.732 198.485,32.831 C 196.986,32.989 196.004,33.141 194.597,33.769 C 191.726,35.052 188.747,35.281 185.808,36.172 C 179.481,38.09 174.221,41.885 168.405,44.793 C 169.885,41.831 171.833,39.178 173.315,36.251 C 174.237,34.432 174.53,32.367 175.493,30.562 C 176.365,28.929 177.601,27.54 178.693,26.057 C 180.569,23.51 181.557,20.434 183.465,17.91 C 185.746,14.893 187.862,11.909 191.159,9.922 C 192.555,9.08 194.017,8.354 195.478,7.63 C 196.483,7.131 196.667,8.418 197.384,8.789 C 198.728,9.483 200.624,8.238 201.981,8.089 C 204.059,7.86 205.883,8.181 207.951,7.645 C 211.46,6.736 215.5,6.805 219.093,7.12 C 222.653,7.432 225.817,9.181 229.155,10.294"
             clip-rule="evenodd"
             style="fill:#009445;fill-rule:evenodd;stroke:#000000;stroke-opacity:0" />
          <path
             id="path4893"
             d="M 190.155,6.544 C 189.144,7.554 187.877,8.25 186.812,9.196 C 185.401,10.452 184.47,12.163 183.214,13.562 C 180.984,16.048 178.541,18.377 176.658,21.153 C 174.781,23.919 173.889,27.139 172.221,30.016 C 170.32,33.296 169.771,36.604 167.152,39.458 C 164.896,41.915 162.631,44.731 161.003,47.646 C 159.144,50.975 157.863,53.813 154.654,55.986 C 151.702,57.984 148.562,59.689 145.615,61.682 C 144.422,62.489 143.06,63.56 141.561,63.655 C 139.499,63.786 137.435,63.887 135.404,64.293 C 136.729,61.642 139.708,61.04 140.807,58.074 C 142.243,54.201 143.704,50.338 145.212,46.493 C 146.659,42.803 147.956,39.009 150.165,35.684 C 152.469,32.216 155.644,29.462 158.289,26.274 C 159.446,24.879 160.845,26.582 161.767,25.83 C 162.834,24.959 164.533,25.421 165.418,24.378 C 165.826,23.897 165.9,23.082 166.522,22.794 C 167.153,22.501 167.691,22.515 167.948,21.758 C 168.437,20.313 170.176,19.955 171.317,19.058 C 174.099,16.871 176.293,14.261 179.261,12.251 C 182.679,9.942 186.092,7.56 190.155,6.544"
             clip-rule="evenodd"
             style="fill:#009445;fill-rule:evenodd;stroke:#000000;stroke-opacity:0" />
          <path
             id="path4895"
             d="M 264.405,28.294 C 262.875,29.824 261.657,32.158 259.826,33.333 C 258.122,34.426 255.671,34.286 253.733,34.283 C 251.423,34.279 249.322,33.597 247.047,33.419 C 244.193,33.196 241.322,33.07 238.459,32.836 C 235.572,32.6 232.637,33.139 229.786,32.46 C 227.2,31.843 224.245,31.421 221.609,31.088 C 217.055,30.513 210.797,30.723 206.654,32.795 C 208.482,27.311 213.919,24.498 218.531,21.55 C 220.969,19.992 223.846,19.561 226.314,18.186 C 227.603,17.468 229.753,14.561 231.435,15.227 C 232.802,15.768 234.386,15.55 235.812,15.859 C 237.318,16.185 238.765,16.721 240.216,17.226 C 243.079,18.222 246.113,18.749 248.849,20.1 C 251.44,21.38 254.423,22.453 256.881,23.943 C 259.396,25.462 261.677,27.383 264.405,28.294"
             clip-rule="evenodd"
             style="fill:#009445;fill-rule:evenodd;stroke:#000000;stroke-opacity:0" />
          <path
             id="path4897"
             d="M 250.905,37.294 C 248.012,38.74 245.184,40.113 242.179,41.312 C 239.332,42.447 236.729,44.164 233.723,44.888 C 232.372,45.214 227.138,48.002 226.93,45.629 C 226.822,44.404 226.19,43.47 226.141,42.167 C 226.096,40.959 225.864,39.18 224.783,38.412 C 223.373,37.411 219.71,40.631 218.876,41.636 C 217.683,43.076 215.628,43.42 214.172,42.425 C 212.822,41.503 211.597,40.14 210.134,39.408 C 208.99,38.836 207.744,38.383 206.822,37.46 C 205.9,36.539 205.03,35.793 203.655,35.793 C 207.555,34.818 211.486,34.171 215.518,34.279 C 219.822,34.394 224.172,35.368 228.43,35.931 C 232.171,36.426 236.064,37.243 239.844,37.299 C 241.67,37.327 243.5,37.505 245.276,37.948 C 245.975,38.123 246.63,37.736 247.249,37.491 C 248.421,37.028 249.689,37.294 250.905,37.294"
             clip-rule="evenodd"
             style="fill:#009445;fill-rule:evenodd;stroke:#000000;stroke-opacity:0" />
          <path
             id="path4899"
             d="M 211.905,45.544 C 211.905,47.924 210.4,48.549 208.905,50.044 C 208.192,50.756 207.173,51.026 206.461,51.738 C 205.63,52.568 205.357,53.816 204.405,54.544 C 204.588,52.702 202.556,51.401 201.695,49.972 C 201.073,48.94 199.966,46.977 198.5,47.948 C 196.4,49.338 194.499,50.994 192.693,52.744 C 191.793,53.617 189.294,57.13 188.005,56.827 C 186.561,56.487 185.214,55.478 183.862,54.882 C 181.886,54.011 179.853,54.117 177.889,53.416 C 176.198,52.812 175.327,51.165 173.688,50.511 C 171.762,49.742 169.656,49.739 167.654,49.295 C 171.616,47.314 175.2,44.653 179.222,42.786 C 181.337,41.804 183.555,41.064 185.74,40.256 C 187.662,39.545 189.573,38.401 191.636,38.206 C 193.619,38.018 195.296,37.083 197.225,36.803 C 199.068,36.535 201.409,37.723 202.989,38.576 C 204.52,39.403 205.797,40.311 207.383,41.077 C 209.263,41.986 210.469,44.107 211.905,45.544"
             clip-rule="evenodd"
             style="fill:#009445;fill-rule:evenodd;stroke:#000000;stroke-opacity:0" />
          <path
             id="path4901"
             d="M 127.155,44.794 C 126.331,47.265 126.018,49.865 125.599,52.425 C 125.235,54.654 122.748,54.634 120.989,54.574 C 118.197,54.479 115.664,53.422 112.938,53.069 C 110.277,52.724 107.956,54.243 106.156,56.044 C 106.156,50.311 112.038,52.264 115.374,49.799 C 116.072,49.282 116.227,48.391 116.906,47.858 C 117.863,47.108 118.466,46.484 119.27,45.569 C 121.25,43.316 124.83,43.244 127.155,44.794"
             clip-rule="evenodd"
             style="fill:#754c29;fill-rule:evenodd;stroke:#000000;stroke-opacity:0" />
          <path
             id="path4903"
             d="M 223.905,47.794 C 225.084,50.151 227.908,50.869 230.352,50.764 C 231.768,50.703 233.076,50.175 234.47,50.012 C 235.945,49.839 237.427,50.045 238.905,50.045 C 236.758,52.192 235.037,54.725 232.858,56.844 C 230.34,59.292 227.259,61.307 224.294,63.165 C 218.352,66.887 211.523,68.631 204.734,70.086 C 197.232,71.694 189.576,72.279 181.92,71.709 C 174.076,71.126 166.398,69.335 158.655,68.045 C 160.582,67.082 163.235,66.302 165.403,66.624 C 166.725,66.821 168.006,67.622 169.378,67.372 C 170.775,67.117 172.152,66.684 173.562,66.419 C 179.899,65.23 185.784,62.4 190.894,58.495 C 191.986,57.661 197.141,51.604 198.287,52.308 C 199.998,53.36 198.073,55.434 198.882,57.051 C 199.613,58.513 202.199,58.233 202.156,59.796 C 204.555,60.05 206.727,57.064 208.231,55.604 C 210.255,53.64 212.493,52.337 214.387,50.18 C 215.987,48.36 218.276,45.795 220.363,44.562 C 223.076,42.957 223.068,46.121 223.905,47.794"
             clip-rule="evenodd"
             style="fill:#009445;fill-rule:evenodd;stroke:#000000;stroke-opacity:0" />
          <path
             id="path4905"
             d="M 184.155,58.294 C 180.986,59.878 178.532,63.039 174.846,63.498 C 172.957,63.733 172.061,64.215 170.125,63.731 C 168.118,63.23 165.996,63.233 163.949,63.439 C 161.846,63.65 159.906,64.536 157.947,65.262 C 156.259,65.889 154.98,67.294 153.077,67.294 C 150.939,67.294 148.773,67.78 146.654,67.294 C 146.052,67.156 145.485,66.603 144.822,66.772 C 143.692,67.061 142.577,67.294 141.404,67.294 C 145.318,65.728 149.39,64.339 152.93,61.998 C 156.461,59.662 159.603,56.991 162.737,54.182 C 165.962,51.29 170.087,52.355 173.796,53.592 C 175.57,54.184 176.486,56.026 178.154,56.795 C 180.048,57.666 182.157,57.794 184.155,58.294"
             clip-rule="evenodd"
             style="fill:#009445;fill-rule:evenodd;stroke:#000000;stroke-opacity:0" />
          <path
             id="path4907"
             d="M 128.655,58.294 C 130.254,62.291 132.976,65.48 134.003,69.721 C 135.197,74.655 136.181,79.702 136.104,84.8 C 136.028,89.801 135.485,94.77 135.48,99.787 C 135.476,102.783 135.279,107.184 131.608,107.801 C 129.271,108.193 125.513,106.729 127.899,104 C 128.737,103.042 129.389,102.192 128.295,101.093 C 127.421,100.215 126.835,100.152 126.721,98.744 C 126.628,97.597 126.568,96.602 125.927,95.614 C 123.573,91.987 119.559,89.649 117.13,86.006 C 114.2,81.611 117.6,77.411 120.405,74.044 C 122.279,75.918 121.36,75.523 120.139,77.599 C 119.126,79.32 118.537,81.849 119.075,83.806 C 120.011,87.217 124.091,89.467 127.031,90.932 C 130.677,92.75 129.613,87.293 129.413,85.147 C 129.002,80.726 127.734,77.504 124.913,74.106 C 123.592,72.514 122.039,71.129 120.746,69.517 C 119.622,68.116 118.617,66.598 117.075,65.623 C 115.279,64.488 111.262,62.916 110.933,60.483 C 110.761,59.207 112.211,57.33 113.094,56.553 C 114.841,55.017 116.365,56.916 118.219,56.746 C 119.808,56.601 120.437,58.506 121.956,58.323 C 123.014,58.196 123.898,58.877 124.904,59.043 C 126.212,59.259 127.449,58.696 128.655,58.294"
             clip-rule="evenodd"
             style="fill:#603913;fill-rule:evenodd;stroke:#000000;stroke-opacity:0" />
          <path
             id="path4909"
             d="M 114.405,77.044 C 114.405,79.157 113.001,81.409 113.784,83.504 C 114.613,85.718 115.467,88.009 116.893,89.921 C 118.957,92.686 122.184,95.487 122.669,99.089 C 123.294,103.733 117.514,102.579 114.8,102.06 C 109.589,101.064 104.442,102.035 99.404,103.295 C 100.392,105.272 102.933,105.102 104.778,104.623 C 107.806,103.836 109.85,103.809 112.959,104.532 C 116.001,105.24 119,105.943 122.003,106.801 C 124.568,107.534 126.865,109.599 129.464,109.974 C 131.565,110.277 135.459,109.805 137.358,108.873 C 138.385,108.369 139.487,108.586 140.577,108.32 C 142.077,107.954 143.587,107.638 145.089,107.279 C 147.646,106.668 149.995,105.696 152.407,104.678 C 153.195,104.346 154.193,103.975 154.722,103.257 C 155.209,102.595 155.325,101.569 156.404,101.796 C 155.896,101.034 155.463,99.536 154.241,99.928 C 152.703,100.422 150.464,100.413 149.12,101.301 C 147.779,102.188 146.346,101.403 144.922,101.909 C 144.271,102.141 141.893,103.143 141.5,101.791 C 141.137,100.535 141.691,98.589 141.829,97.327 C 142.076,95.048 142.366,92.773 142.587,90.492 C 142.829,87.995 142.386,85.307 141.93,82.857 C 141.535,80.744 140.276,77.935 142.706,76.843 C 145.63,75.53 149.698,75.096 152.874,74.809 C 157.277,74.41 161.946,74.69 166.35,74.999 C 174.843,75.596 183.595,76.428 191.967,77.999 C 195.954,78.748 199.648,80.219 203.552,81.227 C 207.954,82.364 212.02,83.532 216.221,85.308 C 224.365,88.748 231.67,92.707 238.739,98.057 C 245.242,102.979 249.647,109.967 253.318,117.135 C 257.059,124.441 259.721,132.646 261.678,140.622 C 263.766,149.132 262.653,158.115 262.188,166.726 C 261.695,175.863 261.538,184.882 260.25,193.968 C 258.998,202.8 257.744,211.696 255.672,220.379 C 253.659,228.814 250.656,237.03 246.803,244.798 C 243.175,252.111 238.216,258.562 232.942,264.753 C 222.488,277.023 207.091,285.344 192.778,292.266 C 185.464,295.804 177.911,299.611 169.714,300.447 C 161.577,301.277 153.031,303.229 144.832,302.01 C 140.937,301.432 137.261,300.182 133.429,299.449 C 129.702,298.736 126.214,301.1 122.547,301.261 C 118.856,301.423 114.569,302.223 110.955,301.174 C 107.662,300.218 107.129,296.278 104.29,294.871 C 102.998,294.23 101.186,294.391 99.79,294.132 C 97.852,293.774 95.935,293.29 94.018,292.836 C 92.219,292.409 90.421,291.958 88.722,291.217 C 86.818,290.386 84.722,289.987 82.867,289.117 C 75.288,285.567 67.775,282.084 60.676,277.573 C 46.504,268.566 35.145,256.252 25.901,242.371 C 21.087,235.142 17.693,227.883 14.866,219.687 C 11.981,211.326 9.151,202.791 7.924,194.004 C 6.697,185.215 6.915,176.269 7.701,167.448 C 8.47,158.817 10.729,150.912 13.683,142.806 C 19.234,127.575 26.103,113.094 37.109,101.011 C 42.617,94.964 48.772,89.079 55.893,84.967 C 62.654,81.062 70.891,77.549 78.717,76.936 C 81.504,76.718 84.045,75.938 86.773,75.5 C 88.247,75.263 89.734,75.559 91.213,75.352 C 92.705,75.143 93.972,74.619 95.51,74.673 C 101.683,74.889 108.694,74.188 114.405,77.044"
             clip-rule="evenodd"
             style="fill:#ed1c24;fill-rule:evenodd;stroke:#000000;stroke-opacity:0" />
        </g>
        <text
           xml:space="preserve"
           style="font-size:54.98069000000000300px;font-style:normal;font-weight:normal;fill:#000000;fill-opacity:1;stroke:#000000;stroke-width:1px;stroke-linecap:butt;stroke-linejoin:miter;stroke-opacity:0;font-family:Bitstream Vera Sans"
           x="30.531582"
           y="989.66376"
           id="text4651"
           transform="scale(1.3349856,0.7490717)"><tspan
             sodipodi:role="line"
             id="tspan4653"
             x="30.531582"
             y="989.66376">Spritzer</tspan></text>
        <g
           transform="matrix(1.07565,0,0,1.07565,-165.33652,270.58652)"
           id="g1179"
           style="stroke:#000000;stroke-opacity:0">
          <path
             transform="translate(118.0094,31.55575)"
             style="fill:url(#linearGradient5100);fill-opacity:1;fill-rule:evenodd;stroke-width:0.50000000000000000;stroke:#000000;stroke-opacity:0"
             sodipodi:nodetypes="ccccc"
             id="path991"
             d="M 226.03907,512.81352 C 236.16099,535.16797 291.62927,536.6487 303.91053,510.77766 L 309.80727,357.07061 C 307.48155,382.06427 219.50159,382.58529 216.45609,356.47433 L 226.03907,512.81352 z" />
          <path
             transform="translate(118.0094,31.55575)"
             style="fill:url(#linearGradient5102);fill-opacity:1;fill-rule:evenodd;stroke-width:0.50000000000000000;stroke:#000000;stroke-opacity:0"
             sodipodi:nodetypes="ccccc"
             id="path849"
             d="M 225.15379,521.95637 C 235.27571,544.31082 290.74399,545.79155 303.02525,519.92051 L 308.92199,366.21346 C 306.59627,391.20712 218.61631,391.72814 215.57081,365.61718 L 225.15379,521.95637 z" />
          <path
             transform="translate(118.0094,31.55575)"
             style="fill:url(#linearGradient5104);fill-opacity:1;fill-rule:evenodd;stroke-width:0.50000000000000000;stroke:#000000;stroke-opacity:0"
             sodipodi:nodetypes="ccccc"
             id="path827"
             d="M 225.85934,519.74223 C 235.98126,542.09668 291.44954,543.57741 303.7308,517.70637 L 309.62754,363.99932 C 307.30182,388.99298 219.32186,389.514 216.27636,363.40304 L 225.85934,519.74223 z" />
          <path
             transform="translate(118.0094,31.55575)"
             style="fill:url(#linearGradient5106);fill-opacity:1;fill-rule:evenodd;stroke-width:1pt;stroke:#000000;stroke-opacity:0"
             id="path1113"
             d="M 261.84982,414.98234 C 228.72475,416.29715 221.78508,431.95952 221.91232,439.16984 C 222.03957,446.38015 230.77842,458.306 262.63107,458.26359 C 265.91846,458.20668 268.82252,457.90933 271.66232,457.57609 C 269.40121,457.76114 267.24696,457.96668 264.53732,458.01359 C 232.68467,458.056 232.5708,449.7239 232.44357,442.51359 C 232.31633,435.30327 232.55202,416.79509 263.41232,416.91984 C 294.27262,416.6847 295.59757,432.36578 295.72482,439.57609 C 295.79827,443.73844 295.8143,449.00018 289.84982,452.85734 C 300.684,447.80125 304.67955,440.3752 304.59982,435.85734 C 304.47259,428.64701 295.22936,413.66752 261.84982,414.98234 z" />
          <path
             transform="translate(118.0094,31.55575)"
             style="fill:url(#linearGradient5108);fill-opacity:1;fill-rule:evenodd;stroke-width:1pt;stroke:#000000;stroke-opacity:0"
             sodipodi:nodetypes="czzzz"
             id="path852"
             d="M 222.46851,439.21252 C 222.59575,446.42284 231.33296,458.34107 263.18561,458.29866 C 295.03826,457.74728 305.30236,443.11458 305.17512,435.90426 C 305.04788,428.69394 295.80171,413.72192 262.42217,415.03674 C 229.29711,416.35156 222.34127,432.0022 222.46851,439.21252 z" />
          <path
             transform="translate(118.0094,31.55575)"
             style="fill:url(#linearGradient5110);fill-opacity:1;fill-rule:evenodd;stroke-width:1pt;stroke:#000000;stroke-opacity:0"
             sodipodi:nodetypes="czzzz"
             id="path833"
             d="M 233.72595,442.96761 C 233.85319,450.17793 233.953,458.49724 265.80565,458.45483 C 297.6583,457.90345 297.12565,447.22956 296.99841,440.01924 C 296.87117,432.80892 295.54262,417.11712 264.68232,417.35226 C 233.82202,417.22751 233.59871,435.75729 233.72595,442.96761 z" />
          <path
             transform="translate(118.0094,31.55575)"
             style="fill:url(#linearGradient5112);fill-opacity:1;fill-rule:evenodd;stroke:#000000;stroke-width:1pt;stroke-opacity:0"
             sodipodi:nodetypes="ccc"
             id="path829"
             d="M 309.53144,364.59561 C 307.20572,389.58927 219.22576,390.11029 216.18026,363.99933 C 214.72364,340.53128 309.20669,337.42177 309.53144,364.59561 z" />
          <path
             transform="translate(118.0094,31.55575)"
             style="fill:url(#radialGradient5116);fill-opacity:1;fill-rule:evenodd;stroke-width:0.50000000000000000;stroke:#000000;stroke-opacity:0"
             sodipodi:nodetypes="ccczcc"
             id="path944"
             d="M 226.03908,520.44795 C 236.161,542.8024 291.62928,544.28313 303.91054,518.41209 L 305.21116,494.29395 C 360.79776,489.99498 378.70672,570.39365 266.18547,571.94536 C 154.68214,573.49706 166.30358,501.15455 224.07511,492.67974 L 226.03908,520.44795 z" />
          <path
             transform="translate(118.0094,31.55575)"
             style="fill:url(#linearGradient5118);fill-opacity:1;fill-rule:evenodd;stroke-width:1pt;stroke:#000000;stroke-opacity:0"
             sodipodi:nodetypes="cccccczc"
             id="path832"
             d="M 227.256,506.03894 L 228.01944,516.72718 C 228.23166,519.69824 227.38324,522.45302 231.07323,525.12508 C 245.45146,538.99434 283.07236,536.23745 294.43922,526.65197 C 298.17162,522.66509 300.46185,521.56333 300.80126,517.99958 L 302.32815,503.49412 C 294.18473,502.30654 283.28442,512.99477 264.91931,513.16443 C 246.04524,513.33409 239.81044,504.00308 227.256,506.03894 z" />
          <g
             transform="translate(218.7817,-5.29916)"
             id="g941"
             style="stroke:#000000;stroke-opacity:0">
            <path
               style="fill:url(#linearGradient5120);fill-opacity:1;fill-rule:evenodd;stroke-width:1pt;stroke:#000000;stroke-opacity:0"
               sodipodi:nodetypes="ccc"
               id="path830"
               d="M 199.76827,548.68609 C 186.28073,563.6157 149.88982,570.91084 125.96852,550.72195 C 133.26367,570.74119 190.26762,575.74601 199.76827,548.68609 z" />
            <path
               style="fill:url(#linearGradient5122);fill-opacity:1;fill-rule:evenodd;stroke-width:1pt;stroke:#000000;stroke-opacity:0"
               id="path940"
               d="M 200.46316,547.49005 C 198.0816,549.517 195.71513,551.57263 193.31214,553.56782 C 190.60406,555.03509 187.8512,556.41183 185.03756,557.66564 C 182.7886,558.79793 180.31424,559.35869 177.95183,560.20329 C 176.70648,560.64839 175.45068,561.04006 174.12619,561.1516 C 171.29366,561.55013 168.47008,562.07451 165.63192,562.39362 C 162.15706,562.33946 158.67334,562.37746 155.20393,562.26651 C 152.44899,561.73318 149.66602,561.30903 146.92856,560.70768 C 144.5668,559.87901 142.14708,559.19818 139.82288,558.2737 C 138.00822,557.41205 136.11581,556.67213 134.34873,555.73746 C 131.49971,553.85873 128.66464,551.93373 125.80691,550.0838 C 125.04689,549.64224 125.33626,550.67747 125.58883,551.03702 C 126.26089,552.30742 127.02576,553.5975 127.77566,554.80255 C 129.12835,556.13829 130.45484,557.55743 131.82186,558.84344 C 133.47951,559.79892 135.07313,560.89799 136.77047,561.76374 C 139.15601,562.7421 141.49937,563.84874 143.91131,564.7468 C 146.74676,565.39583 149.56794,566.13567 152.41217,566.7287 C 155.15088,566.96466 157.88201,567.35286 160.62566,567.49005 C 163.4268,567.43191 166.24267,567.65652 169.02625,567.26144 C 171.26342,567.02915 173.50948,566.86093 175.70017,566.3239 C 177.4158,566.02164 179.11039,565.63902 180.74525,565.02829 C 183.03532,564.35262 185.25131,563.47553 187.44493,562.53766 C 188.80845,562.07175 189.81856,560.9684 191.01285,560.19192 C 192.24967,559.2426 193.60536,558.45171 194.57796,557.21966 C 195.58301,556.109 196.71668,555.13423 197.4215,553.80001 C 198.22397,552.61365 198.97069,551.40938 199.48926,550.07014 C 199.88564,549.13283 200.38484,548.23414 200.71316,547.2713 C 200.62983,547.34422 200.54649,547.41713 200.46316,547.49005 z" />
          </g>
          <path
             transform="matrix(1,0,0,0.253623,275.7928,409.2985)"
             style="fill:url(#radialGradient5124);fill-opacity:1;fill-rule:evenodd;stroke-width:1pt;stroke:#000000;stroke-opacity:0"
             sodipodi:type="arc"
             sodipodi:ry="49.665058"
             sodipodi:rx="49.665058"
             sodipodi:cy="541.31592"
             sodipodi:cx="106.52795"
             id="path992"
             d="M 156.193,541.31592 A 49.665058,49.665058 0 1 1 56.862888,541.31592 A 49.665058,49.665058 0 1 1 156.193,541.31592 z" />
        </g>
      </g>
      <path
         sodipodi:nodetypes="ccccc"
         id="rect5318"
         d="M 92.60268,150.3575 C 92.60268,150.3575 164.65038,202.78424 161.79323,286.88124 C 64.669732,452.36444 69.269031,343.33145 32.602681,427.50036 C 31.362811,427.50036 30.364661,426.50221 30.364661,425.26234 C 12.879646,430.50784 5.4317,192.42255 92.60268,150.3575 z"
         style="fill:url(#linearGradient5327);fill-opacity:1;fill-rule:nonzero;stroke:#000000;stroke-width:2;stroke-miterlimit:4;stroke-opacity:0;opacity:1" />
    </g>
  </g>
</svg>
