<?xml version="1.0" encoding="UTF-8" standalone="no"?>
<!-- Created with Inkscape (http://www.inkscape.org/) -->

<svg
   xmlns:dc="http://purl.org/dc/elements/1.1/"
   xmlns:cc="http://creativecommons.org/ns#"
   xmlns:rdf="http://www.w3.org/1999/02/22-rdf-syntax-ns#"
   xmlns:svg="http://www.w3.org/2000/svg"
   xmlns="http://www.w3.org/2000/svg"
   xmlns:xlink="http://www.w3.org/1999/xlink"
   xmlns:sodipodi="http://sodipodi.sourceforge.net/DTD/sodipodi-0.dtd"
   xmlns:inkscape="http://www.inkscape.org/namespaces/inkscape"
   width="744.09448819"
   height="1052.3622047"
   id="svg3320"
   version="1.1"
   inkscape:version="0.48.4 r9939"
   sodipodi:docname="bottle-1.svg">
  <defs
     id="defs3322">
    <linearGradient
       inkscape:collect="always"
       xlink:href="#linearGradient10112"
       id="linearGradient10858"
       gradientUnits="userSpaceOnUse"
       x1="223.93016"
       y1="56.657936"
       x2="232.82802"
       y2="78.829765" />
    <linearGradient
       id="linearGradient10112">
      <stop
         offset="0"
         style="stop-color:#888a85;stop-opacity:1;"
         id="stop10114" />
      <stop
         offset="1"
         style="stop-color:#888a85;stop-opacity:0;"
         id="stop10116" />
    </linearGradient>
    <linearGradient
       inkscape:collect="always"
       xlink:href="#linearGradient10980"
       id="linearGradient10978"
       x1="275.3045"
       y1="319.35938"
       x2="421.6955"
       y2="319.35938"
       gradientUnits="userSpaceOnUse" />
    <linearGradient
       id="linearGradient10980">
      <stop
         id="stop10982"
         offset="0"
         style="stop-color:#d7d7d7;stop-opacity:0;" />
      <stop
         style="stop-color:#ffffff;stop-opacity:1;"
         offset="0.34"
         id="stop10984" />
      <stop
         id="stop10986"
         offset="1"
         style="stop-color:#d7d7d7;stop-opacity:0;" />
    </linearGradient>
  </defs>
  <sodipodi:namedview
     id="base"
     pagecolor="#ffffff"
     bordercolor="#666666"
     borderopacity="1.0"
     inkscape:pageopacity="0.0"
     inkscape:pageshadow="2"
     inkscape:zoom="0.35"
     inkscape:cx="375"
     inkscape:cy="520"
     inkscape:document-units="px"
     inkscape:current-layer="g10843"
     showgrid="false"
     inkscape:window-width="1024"
     inkscape:window-height="720"
     inkscape:window-x="-3"
     inkscape:window-y="-3"
     inkscape:window-maximized="1" />
  <metadata
     id="metadata3325">
    <rdf:RDF>
      <cc:Work
         rdf:about="">
        <dc:format>image/svg+xml</dc:format>
        <dc:type
           rdf:resource="http://purl.org/dc/dcmitype/StillImage" />
        <dc:title />
      </cc:Work>
    </rdf:RDF>
  </metadata>
  <g
     inkscape:label="Layer 1"
     inkscape:groupmode="layer"
     id="layer1">
    <g
       id="g10843"
       transform="translate(26.785971,115.10675)">
      <path
         inkscape:connector-curvature="0"
         transform="translate(229.84068,-0.774063)"
         d="m 120.25,703.25 c -21.750336,0 -43.153064,15.68924 -62.53125,46.49917 -12.144198,-0.12538 -2.329394,0.52402 2.09375,1.43833 18.329451,3.15618 22.813499,2.28125 37.71875,2.28125 l 40.125,0 c 14.92677,0.086 25.30709,-0.41112 37.71875,-2.02323 4.18994,-0.70589 16.04585,-2.6181 5.13937,-3.50167 C 161.30561,717.78745 141.7523,703.25 120.25,703.25 z"
         sodipodi:nodetypes="cccccccc"
         id="path10788"
         style="opacity:0.50000000000000000;color:#000000;fill:#eeeeec;fill-opacity:1;fill-rule:nonzero;stroke:#d3d7cf;stroke-width:4.51599979000000040;stroke-linecap:round;stroke-linejoin:round;stroke-miterlimit:4;stroke-opacity:1;stroke-dashoffset:0;marker:none;visibility:visible;display:inline;overflow:visible;enable-background:accumulate;" />
      <path
         id="path10790"
         inkscape:radius="-4.0548573"
         d="m 348.5,-20.71875 c -8.08024,0.0025 -15.3971,1.030032 -20.34375,2.5625 -2.47333,0.766234 -4.34367,1.694972 -5.3125,2.40625 -0.48442,0.355639 -0.65655,0.554834 -0.71875,0.625 l 0,6.90625 A 4.0552627,4.0552627 0 0 1 319,-4.28125 c -1.57051,0.3788788 -2.63325,0.8059281 -3.25,1.125 l 0,7.65625 c 0.61675,0.3190721 1.67949,0.746121 3.25,1.125 a 4.0552627,4.0552627 0 0 1 3.125,3.9375 l 0,151.59375 c 0,2.94984 -0.9808,6.64013 -3.78125,10.03125 -2.80045,3.39112 -7.2363,6.53021 -14.09375,9.46875 -11.14707,4.77671 -26.59377,21.64148 -26.59375,42.78125 l 0,50.71875 a 4.0552627,4.0552627 0 0 1 -0.0937,0.8125 l 0,309.09375 0,65.4375 0,4.5 c 0.36215,0.20059 0.73011,0.4157 1.59375,0.71875 2.33542,0.81948 6.1835,1.69404 11,2.40625 9.63301,1.42443 23.22314,2.3125 38.28125,2.3125 l 40.125,0 c 15.05812,0 28.64825,-0.88807 38.28125,-2.3125 4.8165,-0.71221 8.66458,-1.58677 11,-2.40625 0.86364,-0.30305 1.2316,-0.51816 1.59375,-0.71875 l 0,-4.5 0,-65.4375 0,-309.09375 a 4.0552627,4.0552627 0 0 1 -0.0937,-0.8125 l 0,-50.71875 c 2e-5,-21.13977 -15.44668,-38.00454 -26.59375,-42.78125 -6.85745,-2.93854 -11.2933,-6.07763 -14.09375,-9.46875 -2.80045,-3.39112 -3.78125,-7.08141 -3.78125,-10.03125 l 0,-151.4375 A 4.0552627,4.0552627 0 0 1 378.0625,5.75 c 1.8249,-0.4023729 3.16,-0.8864323 3.875,-1.25 l 0,-7.65625 c -0.715,-0.3635676 -2.0501,-0.8476272 -3.875,-1.25 A 4.0552627,4.0552627 0 0 1 374.875,-8.375 l 0,-6.75 c -0.0622,-0.07017 -0.23433,-0.269361 -0.71875,-0.625 -0.96883,-0.711278 -2.83917,-1.640016 -5.3125,-2.40625 -4.94665,-1.532468 -12.26351,-2.559971 -20.34375,-2.5625 z"
         transform="matrix(1,0,0,0.9965858,-0.22771,97.825316)"
         style="opacity:0.50000000000000000;color:#000000;fill:#eeeeec;fill-opacity:1;fill-rule:nonzero;stroke:none;stroke-width:4.51599979000000040;marker:none;visibility:visible;display:inline;overflow:visible;enable-background:accumulate;"
         inkscape:original="M 348.5 -24.78125 C 331.66485 -24.775981 318.0625 -20.569977 318.0625 -15.34375 L 318.0625 -8.21875 C 314.13537 -7.271344 311.68751 -5.9232984 311.6875 -4.4375 L 311.6875 5.78125 C 311.6875 7.2670482 314.13537 8.6150939 318.0625 9.5625 L 318.0625 161.15625 C 318.0625 165.52733 315.59078 171.39482 302.65625 176.9375 C 289.72171 182.48017 273.59373 200.40486 273.59375 223.4375 L 273.59375 274.15625 L 273.5 274.15625 L 273.5 584.0625 L 273.5 649.5 L 273.5 655.375 C 273.5 659.87865 297.99966 663.5 328.4375 663.5 L 368.5625 663.5 C 399.00035 663.5 423.5 659.87865 423.5 655.375 L 423.5 649.5 L 423.5 584.0625 L 423.5 274.15625 L 423.40625 274.15625 L 423.40625 223.4375 C 423.40627 200.40486 407.27829 182.48017 394.34375 176.9375 C 381.40922 171.39482 378.9375 165.52733 378.9375 161.15625 L 378.9375 9.71875 C 383.26269 8.7650886 386.00001 7.3513647 386 5.78125 L 386 -4.4375 C 386 -6.0076148 383.26269 -7.4213386 378.9375 -8.375 L 378.9375 -15.34375 C 378.9375 -20.569977 365.33515 -24.775981 348.5 -24.78125 z "
         sodipodi:type="inkscape:offset" />
      <path
         inkscape:connector-curvature="0"
         transform="matrix(0.9000174,0,0,0.4734636,139.89874,49.541676)"
         id="path10794"
         sodipodi:nodetypes="cscsc"
         d="m 203.32052,72.527602 c 0,0 7.7521,-10.024729 29.93043,-9.030733 27.79819,1.245869 27.05549,14.427292 27.05549,14.427292 -9.68861,-2.197817 -35.878,-5.668111 -37.63435,0.408914 -2.43553,8.427027 -13.93313,-2.064169 -19.35157,-5.805473 z"
         style="fill:url(#linearGradient10858);fill-opacity:1;fill-rule:evenodd;stroke:none;" />
      <path
         inkscape:connector-curvature="0"
         transform="matrix(0.9415181,0,0,1.2010972,128.92035,-7.376109)"
         id="path10798"
         d="m 272.47012,87.211492 0,7.892947 c 0,4.288307 -17.49175,7.740631 -39.21917,7.740631 -21.72744,-1e-5 -39.21919,-3.452324 -39.21919,-7.740632 l -1e-5,-7.892947 c 1e-5,3.61185 17.49176,7.064171 39.2192,7.064171 l 0,-10e-7 c 21.72742,10e-7 39.21917,-2.775861 39.21917,-7.064169 z"
         style="color:#000000;fill:none;stroke:#d3d7cf;stroke-width:4.51599979000000040;stroke-linecap:round;stroke-linejoin:round;stroke-miterlimit:4;stroke-opacity:1;stroke-dashoffset:0;marker:none;visibility:visible;display:inline;overflow:visible;enable-background:accumulate;" />
      <path
         inkscape:connector-curvature="0"
         d="m 272.47012,87.211492 0,7.892947 c 0,4.288307 -17.49175,7.740631 -39.21917,7.740631 -21.72744,-1e-5 -39.21919,-3.452324 -39.21919,-7.740632 l -1e-5,-7.892947 c 1e-5,3.61185 17.49176,7.064171 39.2192,7.064171 l 0,-10e-7 c 21.72742,10e-7 39.21917,-2.775861 39.21917,-7.064169 z"
         id="path10800"
         transform="matrix(0.7784511,0,0,0.8088985,166.49973,14.740659)"
         style="color:#000000;fill:none;stroke:#d3d7cf;stroke-width:4.51599979000000040;stroke-linecap:round;stroke-linejoin:round;stroke-miterlimit:4;stroke-opacity:1;stroke-dashoffset:0;marker:none;visibility:visible;display:inline;overflow:visible;enable-background:accumulate;" />
      <path
         inkscape:connector-curvature="0"
         id="path10812"
         d="m 272.47012,87.211492 0,7.892947 c 0,4.288307 -17.49175,7.740631 -39.21917,7.740631 -21.72744,-1e-5 -39.21919,-3.452324 -39.21919,-7.740632 l -1e-5,-7.892947 c 1e-5,3.61185 17.49176,7.064171 39.2192,7.064171 l 0,-10e-7 c 21.72742,10e-7 39.21917,-2.775861 39.21917,-7.064169 z"
         sodipodi:nodetypes="ccsccccc"
         transform="matrix(0.7784511,0,0,0.8088985,166.49973,11.676961)"
         style="color:#000000;fill:none;stroke:#2e3436;stroke-width:4.51599979000000040;stroke-linecap:round;stroke-linejoin:round;stroke-miterlimit:4;stroke-opacity:1;stroke-dashoffset:0;marker:none;visibility:visible;display:inline;overflow:visible;enable-background:accumulate;" />
      <path
         id="path10792"
         inkscape:radius="-4.0548573"
         d="m 348.5,-20.71875 c -8.08024,0.0025 -15.3971,1.030032 -20.34375,2.5625 -2.47333,0.766234 -4.34367,1.694972 -5.3125,2.40625 -0.48442,0.355639 -0.65655,0.554834 -0.71875,0.625 l 0,6.90625 A 4.0552627,4.0552627 0 0 1 319,-4.28125 c -1.57051,0.3788788 -2.63325,0.8059281 -3.25,1.125 l 0,7.65625 c 0.61675,0.3190721 1.67949,0.746121 3.25,1.125 a 4.0552627,4.0552627 0 0 1 3.125,3.9375 l 0,151.59375 c 0,2.94984 -0.9808,6.64013 -3.78125,10.03125 -2.80045,3.39112 -7.2363,6.53021 -14.09375,9.46875 -11.14707,4.77671 -26.59377,21.64148 -26.59375,42.78125 l 0,50.71875 a 4.0552627,4.0552627 0 0 1 -0.0937,0.8125 l 0,309.09375 0,65.4375 0,4.5 c 0.36215,0.20059 0.73011,0.4157 1.59375,0.71875 2.33542,0.81948 6.1835,1.69404 11,2.40625 9.63301,1.42443 23.22314,2.3125 38.28125,2.3125 l 40.125,0 c 15.05812,0 28.64825,-0.88807 38.28125,-2.3125 4.8165,-0.71221 8.66458,-1.58677 11,-2.40625 0.86364,-0.30305 1.2316,-0.51816 1.59375,-0.71875 l 0,-4.5 0,-65.4375 0,-309.09375 a 4.0552627,4.0552627 0 0 1 -0.0937,-0.8125 l 0,-50.71875 c 2e-5,-21.13977 -15.44668,-38.00454 -26.59375,-42.78125 -6.85745,-2.93854 -11.2933,-6.07763 -14.09375,-9.46875 -2.80045,-3.39112 -3.78125,-7.08141 -3.78125,-10.03125 l 0,-151.4375 A 4.0552627,4.0552627 0 0 1 378.0625,5.75 c 1.8249,-0.4023729 3.16,-0.8864323 3.875,-1.25 l 0,-7.65625 c -0.715,-0.3635676 -2.0501,-0.8476272 -3.875,-1.25 A 4.0552627,4.0552627 0 0 1 374.875,-8.375 l 0,-6.75 c -0.0622,-0.07017 -0.23433,-0.269361 -0.71875,-0.625 -0.96883,-0.711278 -2.83917,-1.640016 -5.3125,-2.40625 -4.94665,-1.532468 -12.26351,-2.559971 -20.34375,-2.5625 z"
         transform="translate(-0.28602,97.896054)"
         style="opacity:0.50000000000000000;color:#000000;fill:url(#linearGradient10978);fill-opacity:1;fill-rule:nonzero;stroke:#d3d7cf;stroke-width:4.51599979000000040;stroke-linecap:round;stroke-linejoin:round;stroke-miterlimit:4;stroke-opacity:1;stroke-dasharray:none;stroke-dashoffset:0;marker:none;visibility:visible;display:inline;overflow:visible;enable-background:accumulate;"
         inkscape:original="M 348.5 -24.78125 C 331.66485 -24.775981 318.0625 -20.569977 318.0625 -15.34375 L 318.0625 -8.21875 C 314.13537 -7.271344 311.68751 -5.9232984 311.6875 -4.4375 L 311.6875 5.78125 C 311.6875 7.2670482 314.13537 8.6150939 318.0625 9.5625 L 318.0625 161.15625 C 318.0625 165.52733 315.59078 171.39482 302.65625 176.9375 C 289.72171 182.48017 273.59373 200.40486 273.59375 223.4375 L 273.59375 274.15625 L 273.5 274.15625 L 273.5 584.0625 L 273.5 649.5 L 273.5 655.375 C 273.5 659.87865 297.99966 663.5 328.4375 663.5 L 368.5625 663.5 C 399.00035 663.5 423.5 659.87865 423.5 655.375 L 423.5 649.5 L 423.5 584.0625 L 423.5 274.15625 L 423.40625 274.15625 L 423.40625 223.4375 C 423.40627 200.40486 407.27829 182.48017 394.34375 176.9375 C 381.40922 171.39482 378.9375 165.52733 378.9375 161.15625 L 378.9375 9.71875 C 383.26269 8.7650886 386.00001 7.3513647 386 5.78125 L 386 -4.4375 C 386 -6.0076148 383.26269 -7.4213386 378.9375 -8.375 L 378.9375 -15.34375 C 378.9375 -20.569977 365.33515 -24.775981 348.5 -24.78125 z "
         sodipodi:type="inkscape:offset" />
      <path
         inkscape:connector-curvature="0"
         transform="matrix(0.9460399,0,0,1.2004441,127.86562,-11.860725)"
         d="m 272.47012,87.211492 0,7.892947 c 0,4.288307 -17.49175,7.740631 -39.21917,7.740631 -21.72744,-1e-5 -39.21919,-3.452324 -39.21919,-7.740632 l -1e-5,-7.892947 c 1e-5,3.61185 17.49176,7.064171 39.2192,7.064171 l 0,-10e-7 c 21.72742,10e-7 39.21917,-2.775861 39.21917,-7.064169 z"
         sodipodi:nodetypes="ccsccccc"
         id="path10814"
         style="color:#000000;fill:none;stroke:#2e3436;stroke-width:4.51599979000000040;stroke-linecap:round;stroke-linejoin:round;stroke-miterlimit:4;stroke-opacity:1;stroke-dashoffset:0;marker:none;visibility:visible;display:inline;overflow:visible;enable-background:accumulate;" />
      <path
         inkscape:connector-curvature="0"
         transform="matrix(0.7801359,0,0,0.8910596,163.54683,47.419532)"
         id="path10796"
         sodipodi:nodetypes="czsscscssssssssssszcs"
         d="m 243.75728,248.93767 c -9.27229,-3.32488 -22.91181,-0.92634 -28.17207,0.81316 -5.02827,1.66279 -9.75351,5.60805 -12.55396,8.99917 -2.80045,3.39111 -7.2363,6.53021 -14.09375,9.46875 -11.14707,4.7767 -26.59377,21.64148 -26.59375,42.78125 0,0 -1.09579,24.16856 4.9024,29.78594 5.01847,4.69985 10.31437,7.02993 15.7226,2.02656 1.00355,-1.0416 2.08773,-2.2755 3.1875,-3.75 1.09977,-1.4745 2.24089,-3.17985 3.375,-5.15625 1.13411,-1.9764 2.26841,-4.23395 3.375,-6.78125 1.10659,-2.5473 2.17031,-5.37531 3.1875,-8.5625 1.93516,-6.0635 3.64451,-12.07659 5.78125,-17.90625 1.06837,-2.91483 2.26132,-5.77669 3.625,-8.59375 1.36368,-2.81706 2.89648,-5.58816 4.71875,-8.28125 1.82227,-2.69309 3.93086,-5.33208 6.375,-7.875 1.22207,-1.27146 2.52935,-2.521 3.9375,-3.75 1.40815,-1.229 2.9166,-2.41048 4.53125,-3.59375 1.61465,-1.18327 3.3147,-2.36574 5.15625,-3.5 1.84155,-1.13426 1.83331,-1.79972 5.90625,-4.74578 4.07294,-2.94606 2.93034,-1.6502 9.17655,-5.8102 1.1748,-1.44831 0.8271,-4.71852 -1.54427,-5.56885 z"
         style="color:#000000;fill:#ffffff;fill-opacity:0.83060111000000003;fill-rule:nonzero;stroke:none;stroke-width:4.51599979000000040;marker:none;visibility:visible;display:inline;overflow:visible;enable-background:accumulate" />
      <path
         inkscape:connector-curvature="0"
         style="color:#000000;fill:none;stroke:#2e3436;stroke-width:4.51599979000000040;stroke-linecap:round;stroke-linejoin:round;stroke-miterlimit:4;stroke-opacity:1;stroke-dashoffset:0;marker:none;visibility:visible;display:inline;overflow:visible;enable-background:accumulate;"
         transform="matrix(0.7784511,0,0,0.8088985,166.49973,11.676961)"
         sodipodi:nodetypes="ccsccccc"
         d="m 272.47012,87.211492 0,7.892947 c 0,4.288307 -17.49175,7.740631 -39.21917,7.740631 -21.72744,-1e-5 -39.21919,-3.452324 -39.21919,-7.740632 l -1e-5,-7.892947 c 1e-5,3.61185 17.49176,7.064171 39.2192,7.064171 l 0,-10e-7 c 21.72742,10e-7 39.21917,-2.775861 39.21917,-7.064169 z"
         id="path10816" />
      <path
         inkscape:connector-curvature="0"
         transform="translate(-0.28602,97.896054)"
         id="path10802"
         sodipodi:nodetypes="cccccccsccccccccccccccsccccccsc"
         d="m 348.5,-24.78125 c -16.83515,0.0053 -30.4375,4.211273 -30.4375,9.4375 l 0,7.125 c -3.92713,0.947406 -6.37499,2.2954516 -6.375,3.78125 l 0,10.21875 c 0,1.4857982 2.44787,2.8338439 6.375,3.78125 l 0,151.59375 c 0,4.37108 -2.47172,10.23857 -15.40625,15.78125 -12.93454,5.54267 -29.06252,23.46736 -29.0625,46.5 l 0,50.71875 -0.0937,0 0,309.90625 0,65.4375 0,5.875 c 0,4.50365 24.49966,8.125 54.9375,8.125 l 40.125,0 c 30.43785,0 54.9375,-3.62135 54.9375,-8.125 l 0,-5.875 0,-65.4375 0,-309.90625 -0.0937,0 0,-50.71875 c 2e-5,-23.03264 -16.12796,-40.95733 -29.0625,-46.5 -12.93453,-5.54268 -15.40625,-11.41017 -15.40625,-15.78125 l 0,-151.4375 C 383.26269,8.7650886 386.00001,7.3513647 386,5.78125 l 0,-10.21875 c 0,-1.5701148 -2.73731,-2.9838386 -7.0625,-3.9375 l 0,-6.96875 c 0,-5.027927 -12.5897,-9.111583 -28.53568,-9.418931 -0.62891,-0.01212 -1.26304,-0.01837 -1.90182,-0.01857 z"
         style="color:#000000;fill:none;stroke:#2e3436;stroke-width:4.51599979000000040;stroke-linecap:round;stroke-linejoin:round;stroke-miterlimit:4;stroke-opacity:1;stroke-dasharray:none;stroke-dashoffset:0;marker:none;visibility:visible;display:inline;overflow:visible;enable-background:accumulate;" />
    </g>
  </g>
</svg>
