<?xml version="1.0" encoding="UTF-8" standalone="no"?>
<!-- Created with Inkscape (http://www.inkscape.org/) -->

<svg
   xmlns:dc="http://purl.org/dc/elements/1.1/"
   xmlns:cc="http://creativecommons.org/ns#"
   xmlns:rdf="http://www.w3.org/1999/02/22-rdf-syntax-ns#"
   xmlns:svg="http://www.w3.org/2000/svg"
   xmlns="http://www.w3.org/2000/svg"
   xmlns:xlink="http://www.w3.org/1999/xlink"
   xmlns:sodipodi="http://sodipodi.sourceforge.net/DTD/sodipodi-0.dtd"
   xmlns:inkscape="http://www.inkscape.org/namespaces/inkscape"
   width="401.78757"
   height="505.73776"
   id="svg3327"
   version="1.1"
   inkscape:version="0.48.4 r9939"
   sodipodi:docname="glass-1.svg">
  <defs
     id="defs3329">
    <linearGradient
       inkscape:collect="always"
       xlink:href="#linearGradient1102"
       id="linearGradient5100"
       gradientUnits="userSpaceOnUse"
       gradientTransform="scale(0.7337149,1.3629273)"
       x1="354.95923"
       y1="464.90207"
       x2="354.95923"
       y2="299.05014" />
    <linearGradient
       id="linearGradient1102">
      <stop
         style="stop-color:#000000;stop-opacity:0.38823530;"
         offset="0.00000000"
         id="stop1103" />
      <stop
         style="stop-color:#ffffff;stop-opacity:0.34375000;"
         offset="0.50000000"
         id="stop1107" />
      <stop
         style="stop-color:#ffffff;stop-opacity:0.19607843;"
         offset="1.0000000"
         id="stop1104" />
    </linearGradient>
    <linearGradient
       inkscape:collect="always"
       xlink:href="#linearGradient843"
       id="linearGradient5102"
       gradientUnits="userSpaceOnUse"
       gradientTransform="scale(0.7337149,1.3629273)"
       x1="238.75548"
       y1="339.24017"
       x2="317.05142"
       y2="333.88309" />
    <linearGradient
       id="linearGradient843">
      <stop
         style="stop-color:#000000;stop-opacity:0.38823530;"
         offset="0.00000000"
         id="stop844" />
      <stop
         style="stop-color:#000000;stop-opacity:0.19215687;"
         offset="0.50000000"
         id="stop1146" />
      <stop
         style="stop-color:#000000;stop-opacity:0.00000000;"
         offset="1.0000000"
         id="stop845" />
    </linearGradient>
    <linearGradient
       inkscape:collect="always"
       xlink:href="#linearGradient843"
       id="linearGradient5104"
       gradientUnits="userSpaceOnUse"
       gradientTransform="scale(0.7337149,1.3629273)"
       x1="458.70102"
       y1="329.58002"
       x2="404.87259"
       y2="326.23184" />
    <linearGradient
       id="linearGradient3239">
      <stop
         style="stop-color:#000000;stop-opacity:0.38823530;"
         offset="0.00000000"
         id="stop3241" />
      <stop
         style="stop-color:#000000;stop-opacity:0.19215687;"
         offset="0.50000000"
         id="stop3243" />
      <stop
         style="stop-color:#000000;stop-opacity:0.00000000;"
         offset="1.0000000"
         id="stop3245" />
    </linearGradient>
    <linearGradient
       inkscape:collect="always"
       xlink:href="#linearGradient843"
       id="linearGradient5106"
       gradientUnits="userSpaceOnUse"
       gradientTransform="scale(1.3809243,0.7241527)"
       x1="192.95671"
       y1="559.13995"
       x2="192.95671"
       y2="588.70502" />
    <linearGradient
       id="linearGradient3248">
      <stop
         style="stop-color:#000000;stop-opacity:0.38823530;"
         offset="0.00000000"
         id="stop3250" />
      <stop
         style="stop-color:#000000;stop-opacity:0.19215687;"
         offset="0.50000000"
         id="stop3252" />
      <stop
         style="stop-color:#000000;stop-opacity:0.00000000;"
         offset="1.0000000"
         id="stop3254" />
    </linearGradient>
    <linearGradient
       inkscape:collect="always"
       xlink:href="#linearGradient843"
       id="linearGradient5108"
       gradientUnits="userSpaceOnUse"
       gradientTransform="scale(1.3813911,0.7239079)"
       x1="199.15404"
       y1="696.90118"
       x2="193.92329"
       y2="593.573" />
    <linearGradient
       id="linearGradient3257">
      <stop
         style="stop-color:#000000;stop-opacity:0.38823530;"
         offset="0.00000000"
         id="stop3259" />
      <stop
         style="stop-color:#000000;stop-opacity:0.19215687;"
         offset="0.50000000"
         id="stop3261" />
      <stop
         style="stop-color:#000000;stop-opacity:0.00000000;"
         offset="1.0000000"
         id="stop3263" />
    </linearGradient>
    <linearGradient
       inkscape:collect="always"
       xlink:href="#linearGradient838"
       id="linearGradient5110"
       gradientUnits="userSpaceOnUse"
       gradientTransform="scale(1.2410129,0.8057934)"
       x1="217.42307"
       y1="536.03741"
       x2="217.42307"
       y2="459.23132" />
    <linearGradient
       id="linearGradient838">
      <stop
         style="stop-color:#ffffff;stop-opacity:0.00000000;"
         offset="0.00000000"
         id="stop839" />
      <stop
         style="stop-color:#fff;stop-opacity:1;"
         offset="1"
         id="stop840" />
    </linearGradient>
    <linearGradient
       inkscape:collect="always"
       xlink:href="#linearGradient843"
       id="linearGradient5112"
       gradientUnits="userSpaceOnUse"
       gradientTransform="scale(1.5493403,0.645436)"
       x1="118.25803"
       y1="563.01941"
       x2="156.10408"
       y2="564.03723" />
    <linearGradient
       id="linearGradient3270">
      <stop
         style="stop-color:#000000;stop-opacity:0.38823530;"
         offset="0.00000000"
         id="stop3272" />
      <stop
         style="stop-color:#000000;stop-opacity:0.19215687;"
         offset="0.50000000"
         id="stop3274" />
      <stop
         style="stop-color:#000000;stop-opacity:0.00000000;"
         offset="1.0000000"
         id="stop3276" />
    </linearGradient>
    <radialGradient
       inkscape:collect="always"
       xlink:href="#linearGradient948"
       id="radialGradient5116"
       gradientUnits="userSpaceOnUse"
       gradientTransform="scale(1.4550038,0.6872834)"
       cx="184.20265"
       cy="780.47272"
       fx="182.57774"
       fy="734.32568"
       r="49.972103" />
    <linearGradient
       id="linearGradient948">
      <stop
         style="stop-color:#ffffff;stop-opacity:1.0000000;"
         offset="0.00000000"
         id="stop949" />
      <stop
         style="stop-color:#ffffff;stop-opacity:0.16078432;"
         offset="0.52955699"
         id="stop1149" />
      <stop
         style="stop-color:#000000;stop-opacity:0.058823530;"
         offset="0.67708677"
         id="stop1148" />
      <stop
         style="stop-color:#000000;stop-opacity:0.00000000;"
         offset="1.0000000"
         id="stop950" />
    </linearGradient>
    <linearGradient
       inkscape:collect="always"
       xlink:href="#linearGradient843"
       id="linearGradient5118"
       gradientUnits="userSpaceOnUse"
       gradientTransform="scale(1.5489957,0.6455796)"
       x1="177.77042"
       y1="831.05975"
       x2="178.45302"
       y2="795.11487" />
    <linearGradient
       id="linearGradient3285">
      <stop
         style="stop-color:#000000;stop-opacity:0.38823530;"
         offset="0.00000000"
         id="stop3287" />
      <stop
         style="stop-color:#000000;stop-opacity:0.19215687;"
         offset="0.50000000"
         id="stop3289" />
      <stop
         style="stop-color:#000000;stop-opacity:0.00000000;"
         offset="1.0000000"
         id="stop3291" />
    </linearGradient>
    <linearGradient
       inkscape:collect="always"
       xlink:href="#linearGradient838"
       id="linearGradient5120"
       gradientUnits="userSpaceOnUse"
       gradientTransform="scale(1.9871086,0.5032437)"
       x1="84.970261"
       y1="1095.1855"
       x2="84.970261"
       y2="1189.3411" />
    <linearGradient
       id="linearGradient3294">
      <stop
         style="stop-color:#ffffff;stop-opacity:0.00000000;"
         offset="0.00000000"
         id="stop3296" />
      <stop
         style="stop-color:#fff;stop-opacity:1;"
         offset="1"
         id="stop3298" />
    </linearGradient>
    <linearGradient
       inkscape:collect="always"
       xlink:href="#linearGradient838"
       id="linearGradient5122"
       gradientUnits="userSpaceOnUse"
       gradientTransform="scale(1.9304835,0.5180049)"
       x1="87.605721"
       y1="1061.6371"
       x2="87.605721"
       y2="1160.6499" />
    <linearGradient
       id="linearGradient3301">
      <stop
         style="stop-color:#ffffff;stop-opacity:0.00000000;"
         offset="0.00000000"
         id="stop3303" />
      <stop
         style="stop-color:#fff;stop-opacity:1;"
         offset="1"
         id="stop3305" />
    </linearGradient>
    <radialGradient
       inkscape:collect="always"
       xlink:href="#linearGradient994"
       id="radialGradient5124"
       gradientUnits="userSpaceOnUse"
       cx="106.52795"
       cy="541.31592"
       fx="105.48236"
       fy="502.10669"
       r="49.665058" />
    <linearGradient
       id="linearGradient994">
      <stop
         style="stop-color:#ffffff;stop-opacity:0.61983472;"
         offset="0.00000000"
         id="stop995" />
      <stop
         style="stop-color:#ffffff;stop-opacity:0.00000000;"
         offset="1.0000000"
         id="stop996" />
    </linearGradient>
    <radialGradient
       r="49.665058"
       fy="502.10669"
       fx="105.48236"
       cy="541.31592"
       cx="106.52795"
       gradientUnits="userSpaceOnUse"
       id="radialGradient3325"
       xlink:href="#linearGradient994"
       inkscape:collect="always" />
  </defs>
  <sodipodi:namedview
     id="base"
     pagecolor="#ffffff"
     bordercolor="#666666"
     borderopacity="1.0"
     inkscape:pageopacity="0.0"
     inkscape:pageshadow="2"
     inkscape:zoom="0.35"
     inkscape:cx="673.73734"
     inkscape:cy="382.6514"
     inkscape:document-units="px"
     inkscape:current-layer="g1179"
     showgrid="false"
     inkscape:window-width="1024"
     inkscape:window-height="720"
     inkscape:window-x="-3"
     inkscape:window-y="-3"
     inkscape:window-maximized="1"
     fit-margin-top="0"
     fit-margin-left="0"
     fit-margin-right="0"
     fit-margin-bottom="0" />
  <metadata
     id="metadata3332">
    <rdf:RDF>
      <cc:Work
         rdf:about="">
        <dc:format>image/svg+xml</dc:format>
        <dc:type
           rdf:resource="http://purl.org/dc/dcmitype/StillImage" />
        <dc:title></dc:title>
      </cc:Work>
    </rdf:RDF>
  </metadata>
  <g
     inkscape:label="Layer 1"
     inkscape:groupmode="layer"
     id="layer1"
     transform="translate(-284.1198,-409.2758)">
    <g
       transform="matrix(2.386264,0,0,2.2226673,-429.10535,-426.96158)"
       id="g1179"
       style="stroke:#000000;stroke-opacity:0">
      <path
         transform="translate(118.0094,31.55575)"
         style="fill:url(#linearGradient5100);fill-opacity:1;fill-rule:evenodd;stroke:#000000;stroke-width:0.5;stroke-opacity:0"
         sodipodi:nodetypes="ccccc"
         id="path991"
         d="m 226.03907,512.81352 c 10.12192,22.35445 65.5902,23.83518 77.87146,-2.03586 l 5.89674,-153.70705 c -2.32572,24.99366 -90.30568,25.51468 -93.35118,-0.59628 l 9.58298,156.33919 z"
         inkscape:connector-curvature="0" />
      <path
         transform="translate(118.0094,31.55575)"
         style="fill:url(#linearGradient5102);fill-opacity:1;fill-rule:evenodd;stroke:#000000;stroke-width:0.5;stroke-opacity:0"
         sodipodi:nodetypes="ccccc"
         id="path849"
         d="m 225.15379,521.95637 c 10.12192,22.35445 65.5902,23.83518 77.87146,-2.03586 l 5.89674,-153.70705 c -2.32572,24.99366 -90.30568,25.51468 -93.35118,-0.59628 l 9.58298,156.33919 z"
         inkscape:connector-curvature="0" />
      <path
         transform="translate(118.0094,31.55575)"
         style="fill:url(#linearGradient5104);fill-opacity:1;fill-rule:evenodd;stroke:#000000;stroke-width:0.5;stroke-opacity:0"
         sodipodi:nodetypes="ccccc"
         id="path827"
         d="m 225.85934,519.74223 c 10.12192,22.35445 65.5902,23.83518 77.87146,-2.03586 l 5.89674,-153.70705 c -2.32572,24.99366 -90.30568,25.51468 -93.35118,-0.59628 l 9.58298,156.33919 z"
         inkscape:connector-curvature="0" />
      <path
         transform="translate(118.0094,31.55575)"
         style="fill:url(#linearGradient5106);fill-opacity:1;fill-rule:evenodd;stroke:#000000;stroke-width:1pt;stroke-opacity:0"
         id="path1113"
         d="m 261.84982,414.98234 c -33.12507,1.31481 -40.06474,16.97718 -39.9375,24.1875 0.12725,7.21031 8.8661,19.13616 40.71875,19.09375 3.28739,-0.0569 6.19145,-0.35426 9.03125,-0.6875 -2.26111,0.18505 -4.41536,0.39059 -7.125,0.4375 -31.85265,0.0424 -31.96652,-8.28969 -32.09375,-15.5 -0.12724,-7.21032 0.10845,-25.7185 30.96875,-25.59375 30.8603,-0.23514 32.18525,15.44594 32.3125,22.65625 0.0734,4.16235 0.0895,9.42409 -5.875,13.28125 10.83418,-5.05609 14.82973,-12.48214 14.75,-17 -0.12723,-7.21033 -9.37046,-22.18982 -42.75,-20.875 z"
         inkscape:connector-curvature="0" />
      <path
         transform="translate(118.0094,31.55575)"
         style="fill:url(#linearGradient5108);fill-opacity:1;fill-rule:evenodd;stroke:#000000;stroke-width:1pt;stroke-opacity:0"
         sodipodi:nodetypes="czzzz"
         id="path852"
         d="m 222.46851,439.21252 c 0.12724,7.21032 8.86445,19.12855 40.7171,19.08614 31.85265,-0.55138 42.11675,-15.18408 41.98951,-22.3944 -0.12724,-7.21032 -9.37341,-22.18234 -42.75295,-20.86752 -33.12506,1.31482 -40.0809,16.96546 -39.95366,24.17578 z"
         inkscape:connector-curvature="0" />
      <path
         transform="translate(118.0094,31.55575)"
         style="fill:url(#linearGradient5110);fill-opacity:1;fill-rule:evenodd;stroke:#000000;stroke-width:1pt;stroke-opacity:0"
         sodipodi:nodetypes="czzzz"
         id="path833"
         d="m 233.72595,442.96761 c 0.12724,7.21032 0.22705,15.52963 32.0797,15.48722 31.85265,-0.55138 31.32,-11.22527 31.19276,-18.43559 -0.12724,-7.21032 -1.45579,-22.90212 -32.31609,-22.66698 -30.8603,-0.12475 -31.08361,18.40503 -30.95637,25.61535 z"
         inkscape:connector-curvature="0" />
      <path
         transform="translate(118.0094,31.55575)"
         style="fill:url(#linearGradient5112);fill-opacity:1;fill-rule:evenodd;stroke:#000000;stroke-width:1pt;stroke-opacity:0"
         sodipodi:nodetypes="ccc"
         id="path829"
         d="m 309.53144,364.59561 c -2.32572,24.99366 -90.30568,25.51468 -93.35118,-0.59628 -1.45662,-23.46805 93.02643,-26.57756 93.35118,0.59628 z"
         inkscape:connector-curvature="0" />
      <path
         transform="translate(118.0094,31.55575)"
         style="fill:url(#radialGradient5116);fill-opacity:1;fill-rule:evenodd;stroke:#000000;stroke-width:0.5;stroke-opacity:0"
         sodipodi:nodetypes="ccczcc"
         id="path944"
         d="m 226.03908,520.44795 c 10.12192,22.35445 65.5902,23.83518 77.87146,-2.03586 l 1.30062,-24.11814 c 55.5866,-4.29897 73.49556,76.0997 -39.02569,77.65141 -111.50333,1.5517 -99.88189,-70.79081 -42.11036,-79.26562 l 1.96397,27.76821 z"
         inkscape:connector-curvature="0" />
      <path
         transform="translate(118.0094,31.55575)"
         style="fill:url(#linearGradient5118);fill-opacity:1;fill-rule:evenodd;stroke:#000000;stroke-width:1pt;stroke-opacity:0"
         sodipodi:nodetypes="cccccczc"
         id="path832"
         d="m 227.256,506.03894 0.76344,10.68824 c 0.21222,2.97106 -0.6362,5.72584 3.05379,8.3979 14.37823,13.86926 51.99913,11.11237 63.36599,1.52689 3.7324,-3.98688 6.02263,-5.08864 6.36204,-8.65239 l 1.52689,-14.50546 c -8.14342,-1.18758 -19.04373,9.50065 -37.40884,9.67031 -18.87407,0.16966 -25.10887,-9.16135 -37.66331,-7.12549 z"
         inkscape:connector-curvature="0" />
      <g
         transform="translate(218.7817,-5.29916)"
         id="g941"
         style="stroke:#000000;stroke-opacity:0">
        <path
           style="fill:url(#linearGradient5120);fill-opacity:1;fill-rule:evenodd;stroke:#000000;stroke-width:1pt;stroke-opacity:0"
           sodipodi:nodetypes="ccc"
           id="path830"
           d="m 199.76827,548.68609 c -13.48754,14.92961 -49.87845,22.22475 -73.79975,2.03586 7.29515,20.01924 64.2991,25.02406 73.79975,-2.03586 z"
           inkscape:connector-curvature="0" />
        <path
           style="fill:url(#linearGradient5122);fill-opacity:1;fill-rule:evenodd;stroke:#000000;stroke-width:1pt;stroke-opacity:0"
           id="path940"
           d="m 200.46316,547.49005 c -2.38156,2.02695 -4.74803,4.08258 -7.15102,6.07777 -2.70808,1.46727 -5.46094,2.84401 -8.27458,4.09782 -2.24896,1.13229 -4.72332,1.69305 -7.08573,2.53765 -1.24535,0.4451 -2.50115,0.83677 -3.82564,0.94831 -2.83253,0.39853 -5.65611,0.92291 -8.49427,1.24202 -3.47486,-0.0542 -6.95858,-0.0162 -10.42799,-0.12711 -2.75494,-0.53333 -5.53791,-0.95748 -8.27537,-1.55883 -2.36176,-0.82867 -4.78148,-1.5095 -7.10568,-2.43398 -1.81466,-0.86165 -3.70707,-1.60157 -5.47415,-2.53624 -2.84902,-1.87873 -5.68409,-3.80373 -8.54182,-5.65366 -0.76002,-0.44156 -0.47065,0.59367 -0.21808,0.95322 0.67206,1.2704 1.43693,2.56048 2.18683,3.76553 1.35269,1.33574 2.67918,2.75488 4.0462,4.04089 1.65765,0.95548 3.25127,2.05455 4.94861,2.9203 2.38554,0.97836 4.7289,2.085 7.14084,2.98306 2.83545,0.64903 5.65663,1.38887 8.50086,1.9819 2.73871,0.23596 5.46984,0.62416 8.21349,0.76135 2.80114,-0.0581 5.61701,0.16647 8.40059,-0.22861 2.23717,-0.23229 4.48323,-0.40051 6.67392,-0.93754 1.71563,-0.30226 3.41022,-0.68488 5.04508,-1.29561 2.29007,-0.67567 4.50606,-1.55276 6.69968,-2.49063 1.36352,-0.46591 2.37363,-1.56926 3.56792,-2.34574 1.23682,-0.94932 2.59251,-1.74021 3.56511,-2.97226 1.00505,-1.11066 2.13872,-2.08543 2.84354,-3.41965 0.80247,-1.18636 1.54919,-2.39063 2.06776,-3.72987 0.39638,-0.93731 0.89558,-1.836 1.2239,-2.79884 -0.0833,0.0729 -0.16667,0.14583 -0.25,0.21875 z"
           inkscape:connector-curvature="0" />
      </g>
      <path
         transform="matrix(1,0,0,0.253623,275.7928,409.2985)"
         style="fill:url(#radialGradient3325);fill-opacity:1;fill-rule:evenodd;stroke:#000000;stroke-width:1pt;stroke-opacity:0"
         sodipodi:type="arc"
         sodipodi:ry="49.665058"
         sodipodi:rx="49.665058"
         sodipodi:cy="541.31592"
         sodipodi:cx="106.52795"
         id="path992"
         d="m 156.193,541.31592 c 0,27.42925 -22.2358,49.66506 -49.66505,49.66506 -27.429258,0 -49.665062,-22.23581 -49.665062,-49.66506 0,-27.42926 22.235804,-49.66506 49.665062,-49.66506 27.42925,0 49.66505,22.2358 49.66505,49.66506 z" />
    </g>
  </g>
</svg>
